<svg width="24" height="22" viewBox="0 0 24 22" fill="none" xmlns="http://www.w3.org/2000/svg">
<path d="M22.0379 6.41366C22.2976 5.63458 22.4275 4.82696 22.4275 3.99049C22.4275 2.87507 22.1821 1.82694 21.6918 0.846191C20.6632 0.846191 19.7545 1.03386 18.9658 1.40875C18.1776 1.78374 17.2786 2.36545 16.2693 3.15388C15.0002 2.84623 13.6536 2.6924 12.2309 2.6924C10.6731 2.6924 9.18744 2.86077 7.77407 3.19727C6.74533 2.3895 5.83668 1.79592 5.0482 1.41603C4.25973 1.03614 3.34632 0.846242 2.30779 0.846242C1.81741 1.82699 1.57225 2.87517 1.57225 3.99054C1.57225 4.83676 1.70198 5.65408 1.96164 6.44241C0.653796 7.97136 0 9.87511 0 12.154C0 14.1542 0.297951 15.7454 0.894208 16.9282C1.21161 17.553 1.62494 18.1059 2.13461 18.5868C2.64408 19.0675 3.22584 19.4571 3.87973 19.7553C4.53373 20.0532 5.19223 20.3009 5.85577 20.4979C6.51927 20.6949 7.25238 20.8393 8.0553 20.9302C8.85817 21.022 9.56728 21.082 10.1826 21.111C10.798 21.1395 11.4806 21.1541 12.2308 21.1541C13.1153 21.1541 13.9179 21.1323 14.6394 21.0893C15.3606 21.0461 16.1849 20.9401 17.1129 20.7723C18.0408 20.6039 18.8581 20.3754 19.565 20.087C20.2718 19.7986 20.9498 19.3851 21.5988 18.8467C22.2478 18.3081 22.7548 17.6688 23.1204 16.9283C23.7066 15.7359 24 14.1444 24 12.1541C23.9997 9.86551 23.3458 7.95212 22.0379 6.41366ZM20.3077 16.9063C20 17.5363 19.6105 18.031 19.1394 18.392C18.6681 18.7526 18.0817 19.041 17.3798 19.2576C16.6777 19.4739 16.0049 19.6156 15.3606 19.6827C14.7161 19.7501 14 19.7836 13.2114 19.7836H10.7882C9.99981 19.7836 9.28333 19.7501 8.63918 19.6827C7.99498 19.6156 7.32194 19.4739 6.61995 19.2576C5.91821 19.041 5.33176 18.7526 4.86048 18.392C4.3892 18.031 3.99981 17.5363 3.69211 16.9063C3.38446 16.2763 3.23059 15.5385 3.23059 14.6924C3.23059 13.5382 3.56233 12.5573 4.22588 11.75C4.88938 10.9422 5.78833 10.5385 6.92285 10.5385C7.33649 10.5385 8.27399 10.6394 9.73551 10.8414C10.4181 10.9471 11.173 11 11.9998 11C12.8269 11 13.5817 10.9472 14.2642 10.8414C15.7453 10.6393 16.6825 10.5385 17.0769 10.5385C18.2114 10.5385 19.1104 10.9424 19.7739 11.75C20.4374 12.5577 20.769 13.5382 20.769 14.6924C20.769 15.5386 20.6151 16.2768 20.3077 16.9063Z" fill="white" fill-opacity="0.3"/>
<path d="M8.43007 12.4135C8.13676 12.0864 7.78834 11.9229 7.38441 11.9229C6.98037 11.9229 6.6319 12.0866 6.33865 12.4135C6.04554 12.7402 5.83867 13.1057 5.71854 13.5091C5.59816 13.9134 5.53815 14.3075 5.53815 14.6924C5.53815 15.0768 5.59831 15.471 5.71854 15.8752C5.83852 16.2788 6.04529 16.6441 6.33865 16.9708C6.63205 17.2979 6.98037 17.4615 7.38441 17.4615C7.78834 17.4615 8.13691 17.2976 8.43007 16.9708C8.72327 16.6441 8.93004 16.2788 9.05017 15.8752C9.1704 15.471 9.23056 15.0768 9.23056 14.6924C9.23056 14.3079 9.17055 13.9134 9.05017 13.5091C8.92999 13.1059 8.72342 12.7405 8.43007 12.4135Z" fill="white" fill-opacity="0.3"/>
<path d="M17.661 12.4135C17.3678 12.0864 17.0192 11.9229 16.6154 11.9229C16.2117 11.9229 15.863 12.0866 15.5697 12.4135C15.2765 12.7402 15.0697 13.1057 14.9498 13.5091C14.8293 13.9134 14.7691 14.3075 14.7691 14.6924C14.7691 15.0768 14.8293 15.471 14.9498 15.8752C15.0697 16.2788 15.2765 16.6441 15.5697 16.9708C15.8631 17.2979 16.2117 17.4615 16.6154 17.4615C17.0192 17.4615 17.3678 17.2976 17.661 16.9708C17.954 16.6441 18.1609 16.2788 18.2812 15.8752C18.4014 15.471 18.4615 15.0768 18.4615 14.6924C18.4615 14.3079 18.4014 13.9134 18.2812 13.5091C18.1609 13.1059 17.954 12.7405 17.661 12.4135Z" fill="white" fill-opacity="0.3"/>
</svg>
