<svg width="28" height="16" viewBox="0 0 28 16" fill="none" xmlns="http://www.w3.org/2000/svg">
<path d="M27.8516 14.4396C27.8177 14.3666 27.7861 14.3059 27.7567 14.2574C27.2709 13.3824 26.3425 12.3085 24.9722 11.0353L24.9433 11.0061L24.9288 10.9918L24.9141 10.9772H24.8994C24.2775 10.3843 23.8836 9.98568 23.7187 9.78159C23.4169 9.3928 23.3493 8.99927 23.5142 8.60053C23.6308 8.29927 24.0685 7.66304 24.8263 6.69098C25.225 6.17583 25.5407 5.76294 25.7738 5.45188C27.4553 3.2164 28.1843 1.7879 27.9607 1.16582L27.8738 1.02045C27.8155 0.93293 27.6648 0.852865 27.4221 0.779847C27.1789 0.706982 26.868 0.694932 26.4888 0.743491L22.2904 0.772494C22.2223 0.748393 22.1252 0.750639 21.9987 0.779847C21.8723 0.809054 21.8091 0.823709 21.8091 0.823709L21.736 0.860218L21.678 0.904079C21.6294 0.933082 21.576 0.984093 21.5176 1.05701C21.4595 1.12967 21.411 1.21494 21.3722 1.31211C20.9151 2.48811 20.3954 3.58149 19.8121 4.5922C19.4525 5.19488 19.1222 5.71719 18.8206 6.15943C18.5194 6.60153 18.2667 6.92725 18.0627 7.13604C17.8585 7.34503 17.6741 7.51246 17.5086 7.63894C17.3433 7.76547 17.2171 7.81893 17.1298 7.79938C17.0422 7.77982 16.9597 7.76042 16.8817 7.74101C16.7457 7.65349 16.6363 7.53447 16.5538 7.38384C16.471 7.23321 16.4153 7.04362 16.3861 6.81522C16.3571 6.58667 16.3399 6.39008 16.335 6.22479C16.3305 6.05971 16.3326 5.82621 16.3424 5.52494C16.3526 5.22353 16.3571 5.01959 16.3571 4.91267C16.3571 4.54329 16.3643 4.1424 16.3788 3.70991C16.3935 3.27742 16.4054 2.93475 16.4153 2.6823C16.4252 2.42959 16.4298 2.16224 16.4298 1.88038C16.4298 1.59852 16.4127 1.37747 16.3788 1.21704C16.3453 1.0568 16.2938 0.901271 16.2261 0.750486C16.1579 0.599855 16.0581 0.483333 15.9272 0.400613C15.796 0.317995 15.6329 0.252432 15.4389 0.20372C14.9237 0.0871461 14.2677 0.0240852 13.4706 0.0142813C11.663 -0.00512204 10.5015 0.111604 9.98636 0.364308C9.78227 0.471078 9.59758 0.61696 9.43244 0.801497C9.25746 1.01539 9.23305 1.13212 9.35938 1.15132C9.9426 1.23869 10.3555 1.44768 10.5985 1.7781L10.6861 1.95319C10.7542 2.07952 10.8222 2.30317 10.8903 2.62383C10.9582 2.9445 11.0021 3.29922 11.0214 3.6878C11.0699 4.3974 11.0699 5.00483 11.0214 5.51014C10.9727 6.01565 10.9268 6.40918 10.8829 6.69104C10.839 6.9729 10.7735 7.20129 10.6861 7.37618C10.5985 7.55112 10.5402 7.65804 10.511 7.69685C10.4819 7.73565 10.4576 7.76011 10.4383 7.76971C10.3119 7.81812 10.1805 7.84278 10.0446 7.84278C9.90839 7.84278 9.74326 7.77466 9.54892 7.63853C9.35463 7.5024 9.15298 7.31542 8.94399 7.07727C8.73499 6.83906 8.4993 6.50619 8.23679 6.0786C7.97448 5.65102 7.70233 5.14566 7.42047 4.56254L7.18727 4.13964C7.04149 3.86759 6.84235 3.47145 6.58964 2.9516C6.33679 2.43153 6.11329 1.92848 5.919 1.44252C5.84134 1.23843 5.72466 1.08305 5.56918 0.976128L5.49621 0.932265C5.4477 0.893459 5.36984 0.852252 5.26301 0.808339C5.15604 0.764477 5.04442 0.733023 4.92769 0.713671L0.933201 0.742674C0.525015 0.742674 0.248057 0.835146 0.102225 1.01984L0.0438619 1.1072C0.0147057 1.15586 0 1.23358 0 1.34055C0 1.44748 0.0291561 1.5787 0.0875195 1.73408C0.670642 3.10458 1.30478 4.4263 1.98992 5.69947C2.67506 6.97264 3.27044 7.99821 3.77569 8.77527C4.28105 9.55288 4.79616 10.2868 5.32102 10.9766C5.84588 11.6667 6.19331 12.109 6.36329 12.3033C6.53348 12.4979 6.66716 12.6434 6.76433 12.7406L7.12885 13.0904C7.3621 13.3237 7.70462 13.6031 8.15657 13.9286C8.60862 14.2544 9.10907 14.575 9.65819 14.8912C10.2074 15.2068 10.8463 15.4643 11.5753 15.6635C12.3042 15.8629 13.0137 15.9429 13.7038 15.9043H15.3803C15.7204 15.875 15.978 15.768 16.1531 15.5835L16.2111 15.5104C16.2501 15.4524 16.2866 15.3623 16.3203 15.241C16.3544 15.1196 16.3713 14.9857 16.3713 14.8401C16.3614 14.4223 16.3932 14.0457 16.4659 13.7105C16.5386 13.3753 16.6214 13.1226 16.714 12.9524C16.8066 12.7824 16.9111 12.6389 17.0273 12.5226C17.1439 12.406 17.2269 12.3354 17.2756 12.3111C17.324 12.2866 17.3627 12.27 17.3918 12.2601C17.6251 12.1823 17.8996 12.2576 18.2157 12.4862C18.5317 12.7146 18.828 12.9966 19.1051 13.3318C19.3821 13.6673 19.715 14.0436 20.1036 14.4615C20.4926 14.8795 20.8326 15.1902 21.1241 15.3946L21.4156 15.5695C21.6102 15.6862 21.8629 15.7932 22.174 15.8903C22.4845 15.9875 22.7565 16.0118 22.9902 15.9632L26.7221 15.905C27.0912 15.905 27.3784 15.8439 27.5822 15.7226C27.7863 15.6011 27.9076 15.4673 27.9467 15.3217C27.9857 15.176 27.9878 15.0106 27.9541 14.8258C27.9195 14.6414 27.8855 14.5125 27.8516 14.4396Z" fill="white" fill-opacity="0.3"/>
</svg>
